<?xml version="1.0" encoding="utf-8"?>
<!-- Generator: Adobe Illustrator 15.0.0, SVG Export Plug-In . SVG Version: 6.00 Build 0)  -->
<!DOCTYPE svg PUBLIC "-//W3C//DTD SVG 1.1//EN" "http://www.w3.org/Graphics/SVG/1.1/DTD/svg11.dtd">
<svg version="1.1" id="Layer_1" xmlns="http://www.w3.org/2000/svg" xmlns:xlink="http://www.w3.org/1999/xlink" x="0px" y="0px"
	 width="250px" height="250px" viewBox="0 0 250 250" enable-background="new 0 0 250 250" xml:space="preserve">
<path fill="#1E1E1E" d="M153.443,87.25c0,0,8.057-1.644,8.057,6.653v10.347h16.834c0,0,3.982-0.463,3.982,6.175
	c0,0-2.324,9.825,5.642,9.825h5.542v-16h19.348c0,0,9.293,5.825,9.293,39.344c0,0-0.664,44.656-9.957,44.656H193.5v-17h-5.874
	c0,0-5.642-0.455-5.642,9.832c0,0,1.658,9.168-4.979,9.168H106.65l-20.576-21H62.843c0,0-5.343-0.345-5.343-6.318V135.25h-12v32.66
	c0,0-3.939,7.301-3.607-40.156c0,0-7.157-10.952-0.188-28.873c0,0,0.795-4.313,3.795-4.978v35.347h12v-27.714
	c0,0-0.631-6.286,6.339-6.286h13.772c0,0,0.165-8,10.453-8h18.586c0,0,1.658-11-3.319-11H89.393c0,0-7.301,0.645-7.301-3.67
	c0,0-1.659-5.33,6.969-5.33c8.629,0,60.068,0,60.068,0s5.311-0.479,5.311,5.164c0,0,0.332,3.836-4.979,3.836h-14.935
	c0,0-4.147-1-4.147,11H153.443z"/>
</svg>
