<?xml version="1.0" encoding="utf-8"?>
<!-- Generator: Adobe Illustrator 15.0.0, SVG Export Plug-In . SVG Version: 6.00 Build 0)  -->
<!DOCTYPE svg PUBLIC "-//W3C//DTD SVG 1.1//EN" "http://www.w3.org/Graphics/SVG/1.1/DTD/svg11.dtd">
<svg version="1.1" id="Layer_1" xmlns="http://www.w3.org/2000/svg" xmlns:xlink="http://www.w3.org/1999/xlink" x="0px" y="0px"
	 width="250px" height="250px" viewBox="0 0 250 250" enable-background="new 0 0 250 250" xml:space="preserve">
<path fill="#1E1E1E" d="M172.691,98.25H136.5v-5.982c9-3.995,15.209-12.999,15.209-23.488c0-14.19-11.551-25.695-25.742-25.695
	c-14.189,0-25.729,11.505-25.729,25.695c0,10.487,6.263,19.493,15.263,23.485v5.985H79.15l-25.983,103h145.509L172.691,98.25z
	 M109.465,68.779c0-9.088,7.369-16.457,16.456-16.457c9.091,0,16.459,7.369,16.459,16.457c0,9.088-7.368,16.457-16.459,16.457
	C116.834,85.236,109.465,77.867,109.465,68.779z"/>
</svg>
