<?xml version="1.0" encoding="utf-8"?>
<!-- Generator: Adobe Illustrator 15.0.0, SVG Export Plug-In . SVG Version: 6.00 Build 0)  -->
<!DOCTYPE svg PUBLIC "-//W3C//DTD SVG 1.1//EN" "http://www.w3.org/Graphics/SVG/1.1/DTD/svg11.dtd">
<svg version="1.1" id="Layer_1" xmlns="http://www.w3.org/2000/svg" xmlns:xlink="http://www.w3.org/1999/xlink" x="0px" y="0px"
	 width="250px" height="250px" viewBox="0 0 250 250" enable-background="new 0 0 250 250" xml:space="preserve">
<g>
	<path fill="#1E1E1E" d="M204.5,172.25v-43.673c0,0,6.902,1.868,6.635-20.543c0,0-0.635-9.339-5.635-9.872l-3-24.146
		c0,0-0.413-4.766-10.553-4.766H185.5v-9.507c0,0,0.537-5.069-6.133-5.069c0,0-5.867-0.266-5.867,4.535V69.25h-22.1H149.8h-25.3
		V59.209c0-4.801-5.867-4.535-5.867-4.535c-6.67,0-6.133,5.069-6.133,5.069v9.507h-3.787c-10.14,0-13.213,4.766-13.213,4.766
		l-3,24.146c-5,0.533-5.635,9.872-5.635,9.872c-0.268,22.411,6.635,20.543,6.635,20.543v43.221c-2,4.804,0.272,8.452,0.272,8.452
		H98.5v13.426c2,1.602,5.768,1.735,5.768,1.735c6.402,0,5.232-1.202,5.232-1.202V180.25h40.301h1.602H188.5v13.959
		c0,0-1.17,1.202,5.232,1.202c0,0,3.768-0.136,5.768-1.735V180.25h7.389c0,0,2.668-4,0-8H204.5z M197.5,166.25h-96v-6h96V166.25z
		 M197.5,155.25h-96v-6h96V155.25z M103.645,137.314c0-2.614,3.583-4.734,8.004-4.734s8.004,2.12,8.004,4.734
		c0,2.615-3.583,4.735-8.004,4.735S103.645,139.932,103.645,137.314z M180.482,137.314c0-2.614,3.582-4.734,8.004-4.734
		c4.42,0,8.004,2.12,8.004,4.734c0,2.615-3.584,4.735-8.004,4.735C184.064,142.05,180.482,139.932,180.482,137.314z M99.776,124.25
		l2.802-44.344c0.133-2.402,2.001-2.656,2.001-2.656s87.31,0,89.442,0s2.135,2.525,2.135,2.525l2.668,44.475H99.776z"/>
</g>
<g>
	
		<line fill="#1E1E1E" stroke="#FFFFFF" stroke-width="5" stroke-miterlimit="10" x1="73.779" y1="201.838" x2="35.221" y2="201.789"/>
	<rect x="36.471" y="41.221" fill="#1E1E1E" width="27" height="3.25"/>
	<rect x="36.637" y="207.471" fill="#1E1E1E" width="27" height="3.25"/>
	<rect x="45.596" y="43.846" fill="#1E1E1E" width="3.25" height="7.75"/>
	<rect x="45.596" y="56.596" fill="#1E1E1E" width="3.25" height="7.75"/>
	<rect x="45.596" y="69.846" fill="#1E1E1E" width="3.25" height="7.75"/>
	<rect x="45.637" y="82.721" fill="#1E1E1E" width="3.25" height="7.75"/>
	<rect x="45.637" y="96.554" fill="#1E1E1E" width="3.25" height="7.75"/>
	<rect x="45.595" y="109.346" fill="#1E1E1E" width="3.25" height="7.75"/>
	<rect x="45.596" y="122.096" fill="#1E1E1E" width="3.25" height="7.75"/>
	<rect x="45.596" y="134.846" fill="#1E1E1E" width="3.25" height="7.75"/>
	<rect x="45.596" y="148.096" fill="#1E1E1E" width="3.25" height="7.75"/>
	<rect x="45.637" y="160.971" fill="#1E1E1E" width="3.25" height="7.75"/>
	<rect x="45.637" y="174.805" fill="#1E1E1E" width="3.25" height="7.75"/>
	<rect x="45.595" y="187.596" fill="#1E1E1E" width="3.25" height="7.75"/>
	<rect x="45.595" y="200.263" fill="#1E1E1E" width="3.25" height="7.75"/>
</g>
</svg>
