<?xml version="1.0" encoding="utf-8"?>
<!-- Generator: Adobe Illustrator 15.0.0, SVG Export Plug-In  -->
<!DOCTYPE svg PUBLIC "-//W3C//DTD SVG 1.1//EN" "http://www.w3.org/Graphics/SVG/1.1/DTD/svg11.dtd" [
	<!ENTITY ns_flows "http://ns.adobe.com/Flows/1.0/">
]>
<svg version="1.1"
	 xmlns="http://www.w3.org/2000/svg" xmlns:xlink="http://www.w3.org/1999/xlink" xmlns:a="http://ns.adobe.com/AdobeSVGViewerExtensions/3.0/"
	 x="0px" y="0px" width="250px" height="250px" viewBox="7.558 5.132 250 250" enable-background="new 7.558 5.132 250 250"
	 xml:space="preserve">
<defs>
</defs>
<path fill="#FFFFFF" d="M250.526,204.366L142.995,25.351c0,0-3.563-9.281-11.813-9.281s-12.875,9.188-12.875,9.188l-104,181.625
	c0,0-3.75,6.084-3.75,12.292c0,8.708,11.5,9.208,11.5,9.208h221.083c0,0,5.625-0.458,9.125-6.666
	C255.541,215.907,250.526,204.366,250.526,204.366z M210.058,201.382c0,0-147,0-155,0s-2.688-7.063-2.688-7.063l73.313-129.063
	c0,0,2.125-5.063,5.375-5.063s5,5.063,5,5.063s70.75,122.625,75,128.625S210.058,201.382,210.058,201.382z"/>
<path fill="#FFFFFF" d="M101.308,159.382c0,0-9-3.875-5.25-11.375s9.5-5.563,9.5-5.563s-5.25-10.156,4.5-14.906
	c0,0,8.5-5.578,14.25,3.922c0,0-1.5-13.539,12.5-16.039s25.75,10.98,20,22.48c0,0,14.25-2.385,14.75,9.865
	c0,0-0.25,10.615-6.75,11.615H101.308z"/>
<polygon fill="#FFFFFF" points="136.308,161.382 132.558,170.632 142.808,179.382 136.808,189.132 153.558,179.132 146.058,168.882 
	153.808,161.632 "/>
<path fill="#FFFFFF" d="M97.525,183.395c-0.253,0.672-1.002,1.013-1.674,0.76l-0.375-0.141c-0.672-0.252-1.013-1.002-0.76-1.674
	l7.873-20.971c0.253-0.672,1.002-1.013,1.674-0.76l0.375,0.141c0.672,0.252,1.013,1.002,0.76,1.674L97.525,183.395z"/>
<path fill="#FFFFFF" d="M105.525,189.395c-0.253,0.672-1.002,1.013-1.674,0.76l-0.375-0.141c-0.672-0.252-1.013-1.002-0.76-1.674
	l7.873-20.971c0.253-0.672,1.002-1.013,1.674-0.76l0.375,0.141c0.672,0.252,1.013,1.002,0.76,1.674L105.525,189.395z"/>
<path fill="#FFFFFF" d="M117.701,180.599c-0.187,0.496-0.882,0.695-1.555,0.442l-0.375-0.141c-0.672-0.252-1.065-0.859-0.879-1.356
	l5.816-15.492c0.188-0.497,0.883-0.695,1.555-0.442l0.375,0.141c0.672,0.252,1.066,0.859,0.879,1.356L117.701,180.599z"/>
<path fill="#FFFFFF" d="M122.701,188.599c-0.187,0.496-0.882,0.695-1.555,0.442l-0.375-0.141c-0.672-0.252-1.065-0.859-0.879-1.356
	l5.816-15.492c0.188-0.497,0.883-0.695,1.555-0.442l0.375,0.141c0.672,0.252,1.066,0.859,0.879,1.356L122.701,188.599z"/>
</svg>
