<?xml version="1.0" encoding="utf-8"?>
<!-- Generator: Adobe Illustrator 15.0.0, SVG Export Plug-In  -->
<!DOCTYPE svg PUBLIC "-//W3C//DTD SVG 1.1//EN" "http://www.w3.org/Graphics/SVG/1.1/DTD/svg11.dtd" [
	<!ENTITY ns_flows "http://ns.adobe.com/Flows/1.0/">
]>
<svg version="1.1"
	 xmlns="http://www.w3.org/2000/svg" xmlns:xlink="http://www.w3.org/1999/xlink" xmlns:a="http://ns.adobe.com/AdobeSVGViewerExtensions/3.0/"
	 x="0px" y="0px" width="250px" height="250px" viewBox="-17.967 -34.979 250 250" enable-background="new -17.967 -34.979 250 250"
	 xml:space="preserve">
<defs>
</defs>
<path fill="#FFFFFF" d="M93.367,126.354L73.7,180.021c0,0-2.084,4.834,4,6.834c5.459,1.795,6.916-1.917,6.916-1.917l20.167-55.499
	c0,0,0.667-3.917-4.083-5.667S93.367,126.354,93.367,126.354z"/>
<path fill="#FFFFFF" d="M120.367,126.354L100.7,180.021c0,0-2.084,4.834,4,6.834c5.459,1.795,6.916-1.917,6.916-1.917l20.167-55.499
	c0,0,0.667-3.917-4.083-5.667S120.367,126.354,120.367,126.354z"/>
<path fill="#FFFFFF" d="M146.367,126.354L126.7,180.021c0,0-2.084,4.834,4,6.834c5.459,1.795,6.916-1.917,6.916-1.917l20.167-55.499
	c0,0,0.667-3.917-4.083-5.667S146.367,126.354,146.367,126.354z"/>
<path fill="#FFFFFF" d="M209.868,69.771c-9.583-17.166-34.751-19.5-34.751-19.5c0.75-22.833-13.416-36.583-19.5-41.333
	c-10-8.75-26.917-8.917-26.917-8.917s-9.249-0.667-21.833,5.499c-12.75,5.834-19.833,18.25-20.75,21.834S82.95,29.02,82.95,29.02
	c-6.834-5.5-26.583-4.666-26.583-4.666s-18.416-1-36,14.667c-21.165,18.859-20.333,47-20.333,47s-1.667,22.001,18.333,40.667
	c18.553,17.314,37.953,17.421,40.666,17.346v-7.013h-0.332c0,0-24-0.167-41-22.499c-17-22.334-5.334-50.083-5.334-50.083
	s10.666-25.044,35-29.71s36.667,3.979,36.667,3.979s5.333,2.658,7-2.342c1.667-5.001,8.999-20.34,23.333-25.006
	s29.251-3.17,39.001,6.497c6,6.25,13.833,13.165,12.999,35.499c0,0-1,4.666,5,5c6,0.332,22.667,2.499,30.751,15.331
	c6.666,10.668,12.25,23.084,1.583,44c-1.844,2.611-12.126,16.971-23.668,18.523v7.612c18.054-1.851,31.32-16.617,35.917-33.135
	C221.201,91.938,217.035,82.521,209.868,69.771z"/>
</svg>
