<?xml version="1.0" encoding="utf-8"?>
<!-- Generator: Adobe Illustrator 15.0.0, SVG Export Plug-In  -->
<!DOCTYPE svg PUBLIC "-//W3C//DTD SVG 1.1//EN" "http://www.w3.org/Graphics/SVG/1.1/DTD/svg11.dtd" [
	<!ENTITY ns_flows "http://ns.adobe.com/Flows/1.0/">
]>
<svg version="1.1"
	 xmlns="http://www.w3.org/2000/svg" xmlns:xlink="http://www.w3.org/1999/xlink" xmlns:a="http://ns.adobe.com/AdobeSVGViewerExtensions/3.0/"
	 x="0px" y="0px" width="250px" height="250px" viewBox="-18.967 -31.979 250 250" enable-background="new -18.967 -31.979 250 250"
	 xml:space="preserve">
<defs>
</defs>
<path fill="#FFFFFF" d="M209.868,69.771c-9.583-17.166-34.751-19.5-34.751-19.5c0.75-22.833-13.416-36.583-19.5-41.333
	c-10-8.75-26.917-8.917-26.917-8.917s-9.249-0.667-21.833,5.499c-12.75,5.834-19.833,18.25-20.75,21.834S82.95,29.02,82.95,29.02
	c-6.834-5.5-26.583-4.666-26.583-4.666s-18.416-1-36,14.667c-21.165,18.859-20.333,47-20.333,47s-1.667,22.001,18.333,40.667
	c18.553,17.314,37.953,17.421,40.666,17.346v-7.013h-0.332c0,0-24-0.167-41-22.499c-17-22.334-5.334-50.083-5.334-50.083
	s10.666-25.044,35-29.71s36.667,3.979,36.667,3.979s5.333,2.658,7-2.342c1.667-5.001,8.999-20.34,23.333-25.006
	s29.251-3.17,39.001,6.497c6,6.25,13.833,13.165,12.999,35.499c0,0-1,4.666,5,5c6,0.332,22.667,2.499,30.751,15.331
	c6.666,10.668,12.25,23.084,1.583,44c-1.844,2.611-12.126,16.971-23.668,18.523v7.612c18.054-1.851,31.32-16.617,35.917-33.135
	C221.201,91.938,217.035,82.521,209.868,69.771z"/>
<path fill="#FFFFFF" d="M114.927,129.021h-8.848l6.256-6.098c1.802-1.801,2.244-4.199,0.99-5.453l-0.314-0.275
	c-1.255-1.254-3.826-0.791-5.627,1.01l-6.351,6.276v-8.848c0-2.547-1.251-4.612-3.024-4.612h-0.445c-1.773,0-3.53,2.065-3.53,4.612
	v8.848l-6.098-6.257c-1.801-1.801-4.199-2.243-5.453-0.99l-0.275,0.315c-1.254,1.253-0.791,3.571,1.01,5.373l6.277,6.099h-8.849
	c-2.547,0-4.612,1.757-4.612,3.53v0.445c0,1.773,2.065,3.024,4.612,3.024h8.848l-6.257,6.351c-1.801,1.801-2.243,4.325-0.989,5.58
	l0.314,0.338c1.255,1.254,3.573,0.823,5.374-0.979l6.098-6.244v8.848c0,2.547,1.757,5.106,3.53,5.106h0.445
	c1.773,0,3.024-2.56,3.024-5.106v-8.851l6.352,6.258c1.8,1.802,4.324,2.244,5.579,0.991l0.338-0.315
	c1.254-1.254,0.823-3.825-0.979-5.626l-6.244-6.351h8.848c2.547,0,5.106-1.251,5.106-3.024v-0.445
	C120.033,130.777,117.474,129.021,114.927,129.021z"/>
<path fill="#FFFFFF" d="M161.927,155.021h-8.848l6.256-6.098c1.802-1.801,2.244-4.199,0.99-5.453l-0.314-0.275
	c-1.255-1.254-3.826-0.791-5.627,1.01l-6.351,6.276v-8.848c0-2.547-1.251-4.612-3.024-4.612h-0.445c-1.773,0-3.53,2.065-3.53,4.612
	v8.848l-6.098-6.257c-1.801-1.801-4.199-2.243-5.453-0.99l-0.275,0.315c-1.254,1.253-0.791,3.571,1.01,5.373l6.277,6.099h-8.849
	c-2.547,0-4.612,1.757-4.612,3.53v0.445c0,1.773,2.065,3.024,4.612,3.024h8.848l-6.257,6.351c-1.801,1.801-2.243,4.325-0.989,5.58
	l0.314,0.338c1.255,1.254,3.573,0.823,5.374-0.979l6.098-6.244v8.848c0,2.547,1.757,5.106,3.53,5.106h0.445
	c1.773,0,3.024-2.56,3.024-5.106v-8.851l6.352,6.258c1.8,1.802,4.324,2.244,5.579,0.991l0.338-0.315
	c1.254-1.254,0.823-3.825-0.979-5.626l-6.244-6.351h8.848c2.547,0,5.106-1.251,5.106-3.024v-0.445
	C167.033,156.777,164.474,155.021,161.927,155.021z"/>
</svg>
