<?xml version="1.0" encoding="utf-8"?>
<!-- Generator: Adobe Illustrator 15.0.0, SVG Export Plug-In  -->
<!DOCTYPE svg PUBLIC "-//W3C//DTD SVG 1.1//EN" "http://www.w3.org/Graphics/SVG/1.1/DTD/svg11.dtd" [
	<!ENTITY ns_flows "http://ns.adobe.com/Flows/1.0/">
]>
<svg version="1.1"
	 xmlns="http://www.w3.org/2000/svg" xmlns:xlink="http://www.w3.org/1999/xlink" xmlns:a="http://ns.adobe.com/AdobeSVGViewerExtensions/3.0/"
	 x="0px" y="0px" width="250px" height="250px" viewBox="-42.739 -47.301 250 250" enable-background="new -42.739 -47.301 250 250"
	 xml:space="preserve">
<defs>
</defs>
<path fill="#FFFFFF" d="M157.188,75.699h-23.322c-0.719-7-2.984-14.447-6.46-20.64l19.422-12.029c0,0,5.23-2.671,2.727-6.726
	c-3.086-4.997-7.636-2.043-7.636-2.043l-20.235,12.493c-3.503-4.141-7.634-7.733-12.248-10.628L121.5,15.803
	c0,0,3.404-4.776-0.693-7.209c-5.049-2.999-7.709,1.734-7.709,1.734l-12.931,21.296c-4.298-1.659-9.906-2.782-13.906-3.26V5.845
	c0,0,0.499-5.845-4.266-5.845c-5.873,0-5.734,5.427-5.734,5.427v22.892c-7,0.636-13.654,2.707-19.709,5.933L43.89,13.521
	c0,0-2.585-5.229-6.64-2.727c-4.998,3.086-2.001,7.636-2.001,7.636l13.206,21.355c-4.08,3.3-7.653,7.19-10.593,11.552L16.83,38.848
	c0,0-4.774-3.404-7.207,0.693c-2.999,5.05,1.735,7.709,1.735,7.709l21.729,12.968c-2.045,4.813-3.389,10.48-3.914,15.48H5.845
	c0,0-5.845-0.499-5.845,4.266c0,5.873,5.428,5.734,5.428,5.734h23.726c0.616,6,2.484,12.944,5.366,18.669l-20.801,12.816
	c0,0-5.23,2.639-2.727,6.694c3.086,4.997,7.636,2.028,7.636,2.028l21.229-13.113c3.237,4.196,7.092,7.884,11.432,10.938
	l-12.243,20.619c0,0-3.405,4.775,0.692,7.208c5.05,2.998,7.709-1.734,7.709-1.734l12.271-21.135
	c5.213,2.342,10.543,3.86,16.543,4.388v22.642c0,0-0.499,5.845,4.266,5.845c5.872,0,5.734-5.427,5.734-5.427v-23.107
	c7-0.696,13.746-2.743,19.618-5.864l12.165,19.464c0,0,2.726,5.23,6.779,2.727c4.998-3.086,2.072-7.636,2.072-7.636l-12.384-20.083
	c4.263-3.441,7.984-7.534,10.999-12.128l19.867,11.793c0,0,4.779,3.404,7.212-0.693c2.998-5.05-1.734-7.709-1.734-7.709
	l-20.658-12.207c1.933-4.714,3.201-9.995,3.688-14.995h22.885c0,0,5.845,0.499,5.845-4.266
	C162.615,75.561,157.188,75.699,157.188,75.699z M81.519,124.113c-23.977,0-43.415-19.438-43.415-43.415
	c0-23.978,19.438-43.416,43.415-43.416c23.978,0,43.416,19.438,43.416,43.416C124.935,104.676,105.497,124.113,81.519,124.113z"/>
</svg>
