<?xml version="1.0" encoding="utf-8"?>
<!-- Generator: Adobe Illustrator 15.0.0, SVG Export Plug-In  -->
<!DOCTYPE svg PUBLIC "-//W3C//DTD SVG 1.1//EN" "http://www.w3.org/Graphics/SVG/1.1/DTD/svg11.dtd" [
	<!ENTITY ns_flows "http://ns.adobe.com/Flows/1.0/">
]>
<svg version="1.1"
	 xmlns="http://www.w3.org/2000/svg" xmlns:xlink="http://www.w3.org/1999/xlink" xmlns:a="http://ns.adobe.com/AdobeSVGViewerExtensions/3.0/"
	 x="0px" y="0px" width="250px" height="250px" viewBox="-15.967 -4.5 250 250" enable-background="new -15.967 -4.5 250 250"
	 xml:space="preserve">
<defs>
</defs>
<path fill="#FFFFFF" d="M209.868,97.25c-9.583-17.166-34.751-19.5-34.751-19.5c0.126-3.825-0.175-7.39-0.778-10.705l22.823-3.335
	c0,0,3.391-1.001,2.957-3.97c-0.434-2.968-3.97-2.957-3.97-2.957l-23.57,3.444c-1.589-4.694-3.764-8.744-6.093-12.149l20.089-14.231
	c0,0,2.566-2.432,0.832-4.879c-1.733-2.447-4.879-0.832-4.879-0.832l-20.368,14.43c-2.479-2.763-4.831-4.812-6.543-6.148
	c-0.875-0.765-1.805-1.461-2.77-2.101l11.177-23.064c0,0,1.076-3.368-1.623-4.676S157.726,8.2,157.726,8.2l-11.1,22.906
	c-4.55-1.814-9.177-2.717-12.593-3.165V3.5c0,0-0.5-3.5-3.5-3.5s-3.5,3.5-3.5,3.5v23.994c-2.455,0.08-7.465,0.572-13.906,2.867
	L102.909,7.675c0,0-1.894-2.985-4.629-1.753c-2.734,1.231-1.753,4.628-1.753,4.628l10.154,22.542
	c-4.273,1.986-7.893,4.708-10.861,7.581L75.414,26.405c0,0-3.154-1.595-4.874,0.863c-1.718,2.458,0.863,4.874,0.863,4.874
	L91.138,45.94c-2.907,3.821-4.604,7.268-5.021,8.894c0,0-0.239,0.513-0.591,1.415C84.476,57.794,82.95,56.5,82.95,56.5
	c-6.834-5.5-26.583-4.666-26.583-4.666s-18.416-1-36,14.666c-21.165,18.859-20.333,47-20.333,47s-1.667,22.001,18.333,40.667
	c18.553,17.314,37.953,17.421,40.666,17.346V164.5h-0.332c0,0-24-0.167-41-22.499c-17-22.334-5.334-50.083-5.334-50.083
	s10.666-25.044,35-29.71c20.324-3.897,32.27,1.488,35.657,3.37c-0.905,5.763-0.843,13.004,2.759,19.547c0,0,1.25,1.75,3.5,0.875
	s2.375-3.75,2.375-3.75s-3.738-8.468,0.026-20.142c2.512-6.151,9.743-19.058,22.683-23.27c14.334-4.666,29.251-3.108,39.001,6.56
	c5.678,5.914,12.992,12.102,13.056,32.102h-0.016c0,0,0.875,19.375-16,29.188c0,0-3.25,1.906-1.313,5.719
	c2.052,4.037,4.438,2.609,4.438,2.609c14.478-8.061,19.287-20.636,20.859-28.908c7.39,0.864,20.75,3.99,27.726,15.063
	c6.666,10.668,12.25,23.082,1.583,43.998c-1.844,2.611-12.126,16.969-23.668,18.521v7.612c18.054-1.851,31.32-16.617,35.917-33.135
	C221.201,119.417,217.035,110,209.868,97.25z"/>
<path fill="#FFFFFF" d="M118.033,164.5l18-38h-34l-17.666,58.863l19.833,0.1l3.667,57.935l34.166-78.897H118.033z M111.033,178.894
	l-19.167,0.053l14.031-47.719l20.303,0.095L108.7,170.5h22.333l-18.75,44.363L111.033,178.894z"/>
</svg>
