<?xml version="1.0" encoding="utf-8"?>
<!-- Generator: Adobe Illustrator 15.0.0, SVG Export Plug-In  -->
<!DOCTYPE svg PUBLIC "-//W3C//DTD SVG 1.1//EN" "http://www.w3.org/Graphics/SVG/1.1/DTD/svg11.dtd" [
	<!ENTITY ns_flows "http://ns.adobe.com/Flows/1.0/">
]>
<svg version="1.1"
	 xmlns="http://www.w3.org/2000/svg" xmlns:xlink="http://www.w3.org/1999/xlink" xmlns:a="http://ns.adobe.com/AdobeSVGViewerExtensions/3.0/"
	 x="0px" y="0px" width="250px" height="250px" viewBox="-15.445 -19 250 250" enable-background="new -15.445 -19 250 250"
	 xml:space="preserve">
<defs>
</defs>
<path fill="#FFFFFF" d="M209.868,97.25c-9.583-17.166-34.751-19.5-34.751-19.5c0.126-3.825-0.175-7.39-0.778-10.705l22.823-3.335
	c0,0,3.391-1.001,2.957-3.97c-0.434-2.968-3.97-2.957-3.97-2.957l-23.57,3.444c-1.589-4.694-3.764-8.744-6.093-12.149l20.089-14.231
	c0,0,2.566-2.432,0.832-4.879c-1.733-2.447-4.879-0.832-4.879-0.832l-20.368,14.43c-2.479-2.763-4.831-4.812-6.543-6.148
	c-0.875-0.765-1.805-1.461-2.77-2.101l11.177-23.064c0,0,1.076-3.368-1.623-4.676S157.726,8.2,157.726,8.2l-11.1,22.906
	c-4.55-1.814-9.177-2.717-12.593-3.165V3.5c0,0-0.5-3.5-3.5-3.5s-3.5,3.5-3.5,3.5v23.994c-2.455,0.08-7.465,0.572-13.906,2.867
	L102.909,7.675c0,0-1.894-2.985-4.629-1.753c-2.734,1.231-1.753,4.628-1.753,4.628l10.154,22.542
	c-4.273,1.986-7.893,4.708-10.861,7.581L75.414,26.405c0,0-3.154-1.595-4.874,0.863c-1.718,2.458,0.863,4.874,0.863,4.874
	L91.138,45.94c-2.907,3.821-4.604,7.268-5.021,8.894c0,0-0.239,0.513-0.591,1.415C84.476,57.794,82.95,56.5,82.95,56.5
	c-6.834-5.5-26.583-4.666-26.583-4.666s-18.416-1-36,14.666c-21.165,18.859-20.333,47-20.333,47s-1.667,22.001,18.333,40.667
	c18.553,17.314,37.953,17.421,40.666,17.346V165h-0.332c0,0-24-0.417-41-22.749c-17-22.334-5.334-50.208-5.334-50.208
	s10.666-25.106,35-29.772c20.324-3.897,32.27,1.457,35.657,3.339c-0.905,5.763-0.843,12.988,2.759,19.531c0,0,1.25,1.742,3.5,0.867
	s2.375-3.754,2.375-3.754s-3.738-8.47,0.026-20.144c2.512-6.151,9.743-19.059,22.683-23.271c14.334-4.666,29.251-2.858,39.001,6.809
	C159.046,51.563,166.36,58,166.424,78h-0.016c0,0,0.875,19.125-16,28.938c0,0-3.25,1.781-1.313,5.594
	c2.052,4.037,4.438,2.547,4.438,2.547c14.478-8.061,19.287-20.667,20.859-28.939c7.39,0.864,20.75,3.975,27.726,15.047
	c6.666,10.668,12.25,23.074,1.583,43.99c-1.844,2.611-12.126,16.961-23.668,18.514v7.612c18.054-1.851,31.32-16.617,35.917-33.135
	C221.201,119.417,217.035,110,209.868,97.25z"/>
<path fill="#FFFFFF" d="M112.927,160h-8.848l6.256-6.348c1.802-1.801,2.244-4.324,0.99-5.578l-0.314-0.338
	c-1.255-1.254-3.826-0.822-5.627,0.979l-6.351,6.245v-8.848c0-2.547-1.251-4.112-3.024-4.112h-0.445c-1.773,0-3.53,1.565-3.53,4.112
	v8.848l-6.098-6.257c-1.801-1.801-4.199-2.243-5.453-0.99l-0.275,0.315c-1.254,1.253-0.791,3.821,1.01,5.623L87.494,160h-8.849
	c-2.547,0-4.612,1.257-4.612,3.03v0.445c0,1.773,2.065,3.524,4.612,3.524h8.848l-6.257,6.101c-1.801,1.801-2.243,4.2-0.989,5.455
	l0.314,0.275c1.255,1.254,3.573,0.792,5.374-1.01l6.098-6.275v8.848c0,2.547,1.757,5.606,3.53,5.606h0.445
	c1.773,0,3.024-3.06,3.024-5.606v-8.851l6.352,6.258c1.8,1.802,4.324,2.244,5.579,0.991l0.338-0.315
	c1.254-1.254,0.823-3.575-0.979-5.376L104.079,167h8.848c2.547,0,5.106-1.751,5.106-3.524v-0.445
	C118.033,161.257,115.474,160,112.927,160z"/>
<path fill="#FFFFFF" d="M162.171,186h-8.848l6.257-6.682c1.801-1.801,2.243-4.49,0.989-5.746l-0.314-0.419
	c-1.255-1.255-3.948-0.866-5.749,0.936l-6.473,6.204v-8.849c0-2.547-1.007-4.444-2.78-4.444h-0.445
	c-1.773,0-2.774,1.897-2.774,4.444v8.849l-6.476-6.257c-1.801-1.802-4.388-2.244-5.643-0.991l-0.369,0.315
	c-1.254,1.254-0.839,4.156,0.963,5.957l6.23,6.683h-8.85c-2.547,0-4.856,0.59-4.856,2.362v0.445c0,1.773,2.31,4.192,4.856,4.192
	h8.848l-6.256,5.767c-1.802,1.802-2.244,4.034-0.99,5.288l0.314,0.191c1.255,1.254,3.951,0.751,5.752-1.05l6.476-6.318v8.849
	c0,2.547,1.001,5.273,2.774,5.273h0.445c1.773,0,2.78-2.727,2.78-5.273v-8.851l6.474,6.258c1.8,1.801,4.386,2.243,5.64,0.99
	l0.369-0.315c1.254-1.253,0.838-3.24-0.963-5.042L153.323,193h8.848c2.547,0,4.862-2.419,4.862-4.192v-0.445
	C167.033,186.59,164.718,186,162.171,186z"/>
</svg>
