<?xml version="1.0" encoding="utf-8"?>
<!-- Generator: Adobe Illustrator 15.0.0, SVG Export Plug-In  -->
<!DOCTYPE svg PUBLIC "-//W3C//DTD SVG 1.1//EN" "http://www.w3.org/Graphics/SVG/1.1/DTD/svg11.dtd" [
	<!ENTITY ns_flows "http://ns.adobe.com/Flows/1.0/">
]>
<svg version="1.1"
	 xmlns="http://www.w3.org/2000/svg" xmlns:xlink="http://www.w3.org/1999/xlink" xmlns:a="http://ns.adobe.com/AdobeSVGViewerExtensions/3.0/"
	 x="0px" y="0px" width="250px" height="250px" viewBox="-14.073 -35.199 250 250" enable-background="new -14.073 -35.199 250 250"
	 xml:space="preserve">
<defs>
</defs>
<path fill="#FFFFFF" d="M209.868,97.25c-9.583-17.166-34.751-19.5-34.751-19.5c0.126-3.825-0.175-7.39-0.778-10.705l22.823-3.335
	c0,0,3.391-1.001,2.957-3.97c-0.434-2.968-3.97-2.957-3.97-2.957l-23.57,3.444c-1.589-4.694-3.764-8.744-6.093-12.149l20.089-14.231
	c0,0,2.566-2.432,0.832-4.879c-1.733-2.447-4.879-0.832-4.879-0.832l-20.368,14.43c-2.479-2.763-4.831-4.812-6.543-6.148
	c-0.875-0.765-1.805-1.461-2.77-2.101l11.177-23.064c0,0,1.076-3.368-1.623-4.676S157.726,8.2,157.726,8.2l-10.653,22.906
	c-4.55-1.814-8.146-2.717-12.146-3.165V3.5c0,0-0.5-3.5-3.5-3.5s-3.5,3.5-3.5,3.5v23.994c-2,0.08-7.912,0.572-14.353,2.867
	L103.133,7.675c0,0-2.005-2.985-4.741-1.753c-2.734,1.231-1.808,4.628-1.808,4.628l10.126,22.542
	c-4.273,1.986-7.907,4.708-10.876,7.581L75.421,26.405c0,0-3.158-1.595-4.877,0.863c-1.718,2.458,0.862,4.874,0.862,4.874
	L91.139,45.94c-2.908,3.821-4.606,7.268-5.022,8.894c0,0-0.239,0.513-0.591,1.415C84.476,57.794,82.95,56.5,82.95,56.5
	c-6.834-5.5-26.583-4.666-26.583-4.666s-18.416-1-36,14.666c-21.165,18.859-20.333,47-20.333,47s-1.667,22.001,18.333,40.667
	c18.553,17.314,48.238,16.583,51.488,16.708l111.072,0.392v0.035c18-1.851,30.874-16.617,35.47-33.135
	C221.648,119.417,217.035,110,209.868,97.25z M204.148,145.168c-1.844,2.611-11.221,16.969-23.221,18.521v0.004L63.48,163.75
	c0,0-31.098-0.75-45.555-21.749c-17-22.334-5.445-50.083-5.445-50.083s10.61-25.044,34.944-29.71
	c20.324-3.897,32.242,1.488,35.629,3.37c-0.905,5.763-0.857,13.004,2.744,19.547c0,0,1.243,1.75,3.493,0.875s2.372-3.75,2.372-3.75
	s-3.74-8.468,0.025-20.142c2.512-6.151,9.742-19.058,22.681-23.27c14.334-4.666,29.251-2.958,39.001,6.71
	c5.678,5.914,12.991,12.251,13.055,32.251h-0.016c0,0,0.875,19.225-16,29.038c0,0-3.25,1.831-1.313,5.643
	c2.052,4.037,4.438,2.572,4.438,2.572c14.478-8.061,19.287-20.655,20.859-28.927c7.39,0.864,20.974,3.981,27.949,15.053
	C209.008,111.847,214.815,124.252,204.148,145.168z"/>
</svg>
