<?xml version="1.0" encoding="utf-8"?>
<!-- Generator: Adobe Illustrator 15.0.0, SVG Export Plug-In  -->
<!DOCTYPE svg PUBLIC "-//W3C//DTD SVG 1.1//EN" "http://www.w3.org/Graphics/SVG/1.1/DTD/svg11.dtd" [
	<!ENTITY ns_flows "http://ns.adobe.com/Flows/1.0/">
]>
<svg version="1.1"
	 xmlns="http://www.w3.org/2000/svg" xmlns:xlink="http://www.w3.org/1999/xlink" xmlns:a="http://ns.adobe.com/AdobeSVGViewerExtensions/3.0/"
	 x="0px" y="0px" width="250px" height="250px" viewBox="-18.322 -45.345 250 250" enable-background="new -18.322 -45.345 250 250"
	 xml:space="preserve">
<defs>
</defs>
<path fill="#FFFFFF" d="M209.868,69.771c-9.583-17.167-34.751-19.5-34.751-19.5c0.75-22.833-13.416-36.584-19.5-41.333
	c-10-8.75-26.917-8.917-26.917-8.917s-9.249-0.667-21.833,5.499c-12.75,5.834-19.833,18.25-20.75,21.834S82.95,29.02,82.95,29.02
	c-6.834-5.5-26.583-4.666-26.583-4.666s-18.416-1-36,14.667c-21.165,18.858-20.333,47-20.333,47s-1.667,22.317,18.333,40.983
	s41,17.65,41,17.65s101.831,0,116.833,0c20.001,0,34.834-15.984,39.75-33.65C221.201,92.254,217.035,82.521,209.868,69.771z
	 M203.701,117.687c-1.949,2.761-13.334,18.667-25.667,18.667l-119.333,0.333c0,0-24,0-41-22.333s-5.334-50-5.334-50
	s10.666-25.001,35-29.667s36.667,4,36.667,4s5.333,2.667,7-2.333s8.999-20.334,23.333-25s29.251-3.167,39.001,6.5
	c6,6.25,13.833,13.166,12.999,35.5c0,0-1,4.667,5,5s22.667,2.5,30.751,15.333C208.784,84.354,214.368,96.77,203.701,117.687z"/>
</svg>
